<?xml version="1.0" encoding="UTF-8"?>
<svg width="210px" height="140px" viewBox="0 0 210 140" version="1.1" xmlns="http://www.w3.org/2000/svg" xmlns:xlink="http://www.w3.org/1999/xlink">
    <!-- Generator: sketchtool 57.1 (101010) - https://sketch.com -->
    <title>B889EEFA-6507-4C49-8224-B8A2C95B4F54</title>
    <desc>Created with sketchtool.</desc>
    <g id="Logo" stroke="none" stroke-width="1" fill="none" fill-rule="evenodd">
        <g id="STS-/-Logo-/-Vertical" transform="translate(-1005.000000, -2740.000000)">
            <g id="Group" transform="translate(890.000000, 2610.000000)">
                <g id="Logo-/-STS-/-Vertical-/-CRM-/-White-Logo-/-General-/-STS" transform="translate(115.000000, 115.000000)">
                    <g id="■-Name-Logo-/-Text-/-STS-/-Vertical-/-CRM" transform="translate(120.000000, 40.000000)">
                        <path d="M11.6910891,0 C14.0673386,0 16.1663275,0.42364567 17.9881188,1.27094972 C19.8099101,2.11825377 21.2277177,3.29957343 22.2415842,4.81494413 C23.2554506,6.33031484 23.7623762,8.08192675 23.7623762,10.0698324 L23.7623762,10.900838 C23.7623762,11.0637811 23.7069312,11.2022806 23.5960396,11.3163408 C23.485148,11.4304009 23.3504958,11.4874302 23.1920792,11.4874302 L18.9148515,11.4874302 C18.7564349,11.4874302 18.6217827,11.4304009 18.5108911,11.3163408 C18.3999994,11.2022806 18.3445545,11.0637811 18.3445545,10.900838 L18.3445545,10.3631285 C18.3445545,8.83146348 17.7346596,7.53608537 16.5148515,6.47695531 C15.2950434,5.41782524 13.6079316,4.88826816 11.4534653,4.88826816 C9.71088238,4.88826816 8.35644048,5.26303163 7.39009901,6.01256983 C6.42375754,6.76210803 5.94059406,7.82122221 5.94059406,9.18994413 C5.94059406,10.1676027 6.19405687,10.9660118 6.7009901,11.5851955 C7.20792333,12.2043793 7.96831176,12.7665245 8.98217822,13.271648 C9.99604467,13.7767716 11.5643458,14.4203872 13.6871287,15.202514 C15.9366449,16.0824066 17.7346467,16.8808158 19.0811881,17.5977654 C20.4277295,18.3147149 21.5841536,19.3167999 22.550495,20.6040503 C23.5168365,21.8913007 24,23.496266 24,25.4189944 C24,28.35197 22.9465452,30.6820212 20.839604,32.4092179 C18.7326627,34.1364146 15.857444,35 12.2138614,35 C9.7425619,35 7.588128,34.5926484 5.75049505,33.777933 C3.9128621,32.9632175 2.4950545,31.822633 1.4970297,30.3561453 C0.499004911,28.8896575 0,27.1624867 0,25.174581 L0,23.952514 C0,23.7895709 0.0554449901,23.6510713 0.166336634,23.5370112 C0.277228277,23.422951 0.411880396,23.3659218 0.57029703,23.3659218 L4.8,23.3659218 C4.95841663,23.3659218 5.09306875,23.422951 5.2039604,23.5370112 C5.31485204,23.6510713 5.37029703,23.7895709 5.37029703,23.952514 L5.37029703,24.8812849 C5.37029703,26.3803613 6.01979549,27.6268572 7.31881188,28.6208101 C8.61782828,29.6147629 10.392068,30.1117318 12.6415842,30.1117318 C14.5742671,30.1117318 16.0316783,29.6880862 17.0138614,28.8407821 C17.9960445,27.9934781 18.4871287,26.9017758 18.4871287,25.5656425 C18.4871287,24.6531612 18.2178245,23.8791931 17.6792079,23.2437151 C17.1405914,22.608237 16.3722822,22.0297978 15.3742574,21.5083799 C14.3762326,20.986962 12.8792179,20.3351994 10.8831683,19.5530726 C8.63365212,18.7057686 6.81188816,17.9073594 5.41782178,17.1578212 C4.02375541,16.408283 2.85941061,15.389904 1.92475248,14.1026536 C0.990094337,12.8154032 0.522772277,11.2104379 0.522772277,9.2877095 C0.522772277,6.41991117 1.53662352,4.15503624 3.56435644,2.49301676 C5.59208935,0.830997277 8.30097315,0 11.6910891,0 Z M54.8894325,0 C55.0590354,0 55.2031958,0.05833275 55.3219178,0.175 C55.4406399,0.29166725 55.5,0.4333325 55.5,0.6 L55.5,4.45 C55.5,4.6166675 55.4406399,4.75833275 55.3219178,4.875 C55.2031958,4.99166725 55.0590354,5.05 54.8894325,5.05 L45.5273973,5.05 C45.3577943,5.05 45.2729941,5.1333325 45.2729941,5.3 L45.2729941,34.4 C45.2729941,34.5666675 45.213634,34.7083328 45.0949119,34.825 C44.9761899,34.9416672 44.8320295,35 44.6624266,35 L39.981409,35 C39.8118061,35 39.6676457,34.9416672 39.5489237,34.825 C39.4302016,34.7083328 39.3708415,34.5666675 39.3708415,34.4 L39.3708415,5.3 C39.3708415,5.1333325 39.2860413,5.05 39.1164384,5.05 L30.1105675,5.05 C29.9409646,5.05 29.7968042,4.99166725 29.6780822,4.875 C29.5593601,4.75833275 29.5,4.6166675 29.5,4.45 L29.5,0.6 C29.5,0.4333325 29.5593601,0.29166725 29.6780822,0.175 C29.7968042,0.05833275 29.9409646,0 30.1105675,0 L54.8894325,0 Z M72.6910891,0 C75.0673386,0 77.1663275,0.42364567 78.9881188,1.27094972 C80.8099101,2.11825377 82.2277177,3.29957343 83.2415842,4.81494413 C84.2554506,6.33031484 84.7623762,8.08192675 84.7623762,10.0698324 L84.7623762,10.900838 C84.7623762,11.0637811 84.7069312,11.2022806 84.5960396,11.3163408 C84.485148,11.4304009 84.3504958,11.4874302 84.1920792,11.4874302 L79.9148515,11.4874302 C79.7564349,11.4874302 79.6217827,11.4304009 79.5108911,11.3163408 C79.3999994,11.2022806 79.3445545,11.0637811 79.3445545,10.900838 L79.3445545,10.3631285 C79.3445545,8.83146348 78.7346596,7.53608537 77.5148515,6.47695531 C76.2950434,5.41782524 74.6079316,4.88826816 72.4534653,4.88826816 C70.7108824,4.88826816 69.3564405,5.26303163 68.390099,6.01256983 C67.4237575,6.76210803 66.9405941,7.82122221 66.9405941,9.18994413 C66.9405941,10.1676027 67.1940569,10.9660118 67.7009901,11.5851955 C68.2079233,12.2043793 68.9683118,12.7665245 69.9821782,13.271648 C70.9960447,13.7767716 72.5643458,14.4203872 74.6871287,15.202514 C76.9366449,16.0824066 78.7346467,16.8808158 80.0811881,17.5977654 C81.4277295,18.3147149 82.5841536,19.3167999 83.550495,20.6040503 C84.5168365,21.8913007 85,23.496266 85,25.4189944 C85,28.35197 83.9465452,30.6820212 81.839604,32.4092179 C79.7326627,34.1364146 76.857444,35 73.2138614,35 C70.7425619,35 68.588128,34.5926484 66.750495,33.777933 C64.9128621,32.9632175 63.4950545,31.822633 62.4970297,30.3561453 C61.4990049,28.8896575 61,27.1624867 61,25.174581 L61,23.952514 C61,23.7895709 61.055445,23.6510713 61.1663366,23.5370112 C61.2772283,23.422951 61.4118804,23.3659218 61.570297,23.3659218 L65.8,23.3659218 C65.9584166,23.3659218 66.0930688,23.422951 66.2039604,23.5370112 C66.314852,23.6510713 66.370297,23.7895709 66.370297,23.952514 L66.370297,24.8812849 C66.370297,26.3803613 67.0197955,27.6268572 68.3188119,28.6208101 C69.6178283,29.6147629 71.392068,30.1117318 73.6415842,30.1117318 C75.5742671,30.1117318 77.0316783,29.6880862 78.0138614,28.8407821 C78.9960445,27.9934781 79.4871287,26.9017758 79.4871287,25.5656425 C79.4871287,24.6531612 79.2178245,23.8791931 78.6792079,23.2437151 C78.1405914,22.608237 77.3722822,22.0297978 76.3742574,21.5083799 C75.3762326,20.986962 73.8792179,20.3351994 71.8831683,19.5530726 C69.6336521,18.7057686 67.8118882,17.9073594 66.4178218,17.1578212 C65.0237554,16.408283 63.8594106,15.389904 62.9247525,14.1026536 C61.9900943,12.8154032 61.5227723,11.2104379 61.5227723,9.2877095 C61.5227723,6.41991117 62.5366235,4.15503624 64.5643564,2.49301676 C66.5920893,0.830997277 69.3009731,0 72.6910891,0 Z" id="■-Secondary" fill="#FFFFFF"></path>
                        <path d="M12.0239521,55 C14.3872374,55 16.4790328,55.4562338 18.2994012,56.3687151 C20.1197696,57.2811964 21.5249451,58.5684274 22.5149701,60.2304469 C23.504995,61.8924664 24,63.815166 24,65.9986034 C24,66.1615464 23.9441123,66.300046 23.8323353,66.4141061 C23.7205583,66.5281663 23.5848311,66.5851955 23.4251497,66.5851955 L19.0179641,66.8296089 C18.6347286,66.8296089 18.4431138,66.6503742 18.4431138,66.2918994 C18.4431138,64.369171 17.8602853,62.8212349 16.6946108,61.6480447 C15.5289363,60.4748545 13.9720656,59.8882682 12.0239521,59.8882682 C10.0758386,59.8882682 8.51098395,60.4748545 7.32934132,61.6480447 C6.14769868,62.8212349 5.55688623,64.369171 5.55688623,66.2918994 L5.55688623,78.7569832 C5.55688623,80.647123 6.14769868,82.1787651 7.32934132,83.3519553 C8.51098395,84.5251455 10.0758386,85.1117318 12.0239521,85.1117318 C13.9720656,85.1117318 15.5289363,84.5332926 16.6946108,83.3763966 C17.8602853,82.2195007 18.4431138,80.6797117 18.4431138,78.7569832 C18.4431138,78.3985084 18.6347286,78.2192737 19.0179641,78.2192737 L23.4251497,78.4148045 C23.5848311,78.4148045 23.7205583,78.4636867 23.8323353,78.5614525 C23.9441123,78.6592184 24,78.7732768 24,78.9036313 C24,81.1196573 23.504995,83.0667979 22.5149701,84.7451117 C21.5249451,86.4234255 20.1197696,87.7188036 18.2994012,88.6312849 C16.4790328,89.5437662 14.3872374,90 12.0239521,90 C9.62873054,90 7.52096719,89.5193251 5.7005988,88.5579609 C3.88023042,87.5965967 2.47505485,86.2523364 1.48502994,84.5251397 C0.49500503,82.7979429 0,80.793773 0,78.5125698 L0,66.4385475 C0,64.1573443 0.49500503,62.1531744 1.48502994,60.4259777 C2.47505485,58.6987809 3.88023042,57.3626677 5.7005988,56.4175978 C7.52096719,55.4725279 9.62873054,55 12.0239521,55 Z M45.489,55 C47.4003429,55 49.092326,55.4249957 50.565,56.275 C52.037674,57.1250043 53.1813293,58.3249923 53.996,59.875 C54.8106707,61.4250078 55.218,63.19999 55.218,65.2 C55.218,67.5000115 54.6618389,69.4583253 53.5495,71.075 C52.4371611,72.6916748 50.8940099,73.8166635 48.92,74.45 C48.857333,74.45 48.8103335,74.483333 48.779,74.55 C48.7476665,74.616667 48.7476665,74.683333 48.779,74.75 L55.406,89.3 C55.468667,89.433334 55.5,89.533333 55.5,89.6 C55.5,89.866668 55.3276684,90 54.983,90 L50.471,90 C50.1576651,90 49.938334,89.8500015 49.813,89.55 L43.609,75.15 C43.546333,75.016666 43.452334,74.95 43.327,74.95 L37.687,74.95 C37.5303325,74.95 37.452,75.0333325 37.452,75.2 L37.452,89.4 C37.452,89.5666675 37.3971672,89.7083327 37.2875,89.825 C37.1778328,89.9416672 37.0446674,90 36.888,90 L32.564,90 C32.4073325,90 32.2741672,89.9416672 32.1645,89.825 C32.0548328,89.7083327 32,89.5666675 32,89.4 L32,55.6 C32,55.4333325 32.0548328,55.2916673 32.1645,55.175 C32.2741672,55.0583328 32.4073325,55 32.564,55 L45.489,55 Z M67.1177504,55 C67.4130067,55 67.6426471,55.133332 67.8066784,55.4 L75.827768,67.75 C75.8933805,67.816667 75.9589921,67.85 76.0246046,67.85 C76.0902171,67.85 76.1394257,67.816667 76.172232,67.75 L84.1933216,55.4 C84.3573529,55.133332 84.5869933,55 84.8822496,55 L89.4094903,55 C89.5735216,55 89.7129461,55.0583328 89.827768,55.175 C89.9425899,55.2916673 90,55.4333325 90,55.6 L90,89.4 C90,89.5666675 89.9425899,89.7083327 89.827768,89.825 C89.7129461,89.9416672 89.5735216,90 89.4094903,90 L84.8822496,90 C84.7182183,90 84.5787938,89.9416672 84.4639719,89.825 C84.34915,89.7083327 84.2917399,89.5666675 84.2917399,89.4 L84.2917399,65.55 C84.2917399,65.4499995 84.2507327,65.3833335 84.168717,65.35 C84.0867014,65.3166665 84.0292913,65.3499995 83.9964851,65.45 L77.8453427,75.05 C77.6813114,75.316668 77.4516711,75.45 77.1564148,75.45 L74.8927944,75.45 C74.5975381,75.45 74.3678977,75.316668 74.2038664,75.05 L68.0035149,65.5 C67.9707087,65.3999995 67.9132986,65.3666665 67.831283,65.4 C67.7492673,65.4333335 67.7082601,65.5 67.7082601,65.6 L67.7082601,89.4 C67.7082601,89.5666675 67.65085,89.7083327 67.5360281,89.825 C67.4212062,89.9416672 67.2817817,90 67.1177504,90 L62.5905097,90 C62.4264784,90 62.2870539,89.9416672 62.172232,89.825 C62.0574101,89.7083327 62,89.5666675 62,89.4 L62,55.6 C62,55.4333325 62.0574101,55.2916673 62.172232,55.175 C62.2870539,55.0583328 62.4264784,55 62.5905097,55 L67.1177504,55 Z M44.737,60 L37.687,60 C37.5303325,60 37.452,60.0833325 37.452,60.25 L37.452,70.2 C37.452,70.3666675 37.5303325,70.45 37.687,70.45 L44.737,70.45 C46.2410075,70.45 47.455162,69.9750047 48.3795,69.025 C49.303838,68.0749952 49.766,66.8166745 49.766,65.25 C49.766,63.6833255 49.303838,62.4166715 48.3795,61.45 C47.455162,60.4833285 46.2410075,60 44.737,60 Z" id="Color-(Primary)" fill="#8DC63F"></path>
                    </g>
                    <g id="■-Logo-Logo-/-Icon-/-STS-/-General" transform="translate(0.000000, 15.000000)">
                        <path d="M100,90.5882353 L50,140 L50,123.529412 L83.3333333,90.5882353 L100,90.5882353 Z M50,0 L50,16.4705882 L16.6666667,49.4117647 L0,49.4117647 L50,0 Z" id="Color-(Secondary)" fill="#FFFFFF"></path>
                        <path d="M16.6666667,49.4117647 L50,82.3529412 L50,98.8235294 L0,49.4117647 L16.6666667,49.4117647 Z M50,41.1764706 L100,90.5882353 L83.3333333,90.5882353 L50,57.6470588 L50,41.1764706 Z" id="Color-(Primary)" fill="#8DC63F"></path>
                    </g>
                </g>
            </g>
        </g>
    </g>
</svg>