<?xml version="1.0" encoding="UTF-8"?>
<svg width="177px" height="50px" viewBox="0 0 177 50" version="1.1" xmlns="http://www.w3.org/2000/svg" xmlns:xlink="http://www.w3.org/1999/xlink">
    <title>85406395-0449-42B7-916B-D665DDDE75C2</title>
    <defs>
        <rect id="path-1" x="0" y="0" width="1440" height="60"></rect>
        <filter x="-0.3%" y="-6.7%" width="100.7%" height="116.7%" filterUnits="objectBoundingBox" id="filter-2">
            <feOffset dx="0" dy="1" in="SourceAlpha" result="shadowOffsetOuter1"></feOffset>
            <feGaussianBlur stdDeviation="1.5" in="shadowOffsetOuter1" result="shadowBlurOuter1"></feGaussianBlur>
            <feColorMatrix values="0 0 0 0 0   0 0 0 0 0   0 0 0 0 0  0 0 0 0.1 0" type="matrix" in="shadowBlurOuter1"></feColorMatrix>
        </filter>
        <rect id="path-3" x="0" y="0" width="220" height="1715"></rect>
        <filter x="-2.3%" y="-0.2%" width="104.5%" height="100.6%" filterUnits="objectBoundingBox" id="filter-4">
            <feOffset dx="0" dy="1" in="SourceAlpha" result="shadowOffsetOuter1"></feOffset>
            <feGaussianBlur stdDeviation="1.5" in="shadowOffsetOuter1" result="shadowBlurOuter1"></feGaussianBlur>
            <feColorMatrix values="0 0 0 0 0   0 0 0 0 0   0 0 0 0 0  0 0 0 0.1 0" type="matrix" in="shadowBlurOuter1"></feColorMatrix>
        </filter>
        <rect id="path-5" x="0" y="0" width="220" height="1715"></rect>
    </defs>
    <g id="STS-/-Layout-/-Internal-/-Web-/-1440-/-General" stroke="none" stroke-width="1" fill="none" fill-rule="evenodd">
        <g id="0.1.1-Assets" transform="translate(-17.000000, -5.000000)">
            <g id="Wrapper" fill="#F6F7FA">
                <rect id="â– -Shape" x="0" y="0" width="1440" height="1715"></rect>
            </g>
            <g id="Header">
                <g id="Shadow" fill="black" fill-opacity="1">
                    <use filter="url(#filter-2)" xlink:href="#path-1"></use>
                </g>
                <g id="Backgorund" fill="#FFFFFF">
                    <rect id="â– -Shape" x="0" y="0" width="1440" height="60"></rect>
                </g>
            </g>
            <g id="Component-/-Layout-/-Navigation-/-Assets">
                <g id="ðŸŒ—-Background" fill="#151B22">
                    <rect id="â– -Shape" x="0" y="0" width="220" height="1715"></rect>
                </g>
                <g id="ðŸŒ—-Shadow" fill="black" fill-opacity="1">
                    <use filter="url(#filter-4)" xlink:href="#path-3"></use>
                </g>
                <mask id="mask-6" fill="white">
                    <use xlink:href="#path-5"></use>
                </mask>
                <g id="Bound"></g>
                <g id="ðŸŒ-Logo" mask="url(#mask-6)">
                    <g id="Logo" transform="translate(17.000000, 5.000000)">
                        <g id="â– -Name" transform="translate(35.294118, 11.764706)">
                            <path d="M3.43855562,0 C4.13745253,0 4.75480221,0.124601668 5.29062318,0.373808741 C5.82644415,0.623015815 6.24344638,0.970462773 6.5416424,1.41616004 C6.83983842,1.86185731 6.98893419,2.37703728 6.98893419,2.96171541 L6.98893419,3.20612882 C6.98893419,3.25405326 6.97262684,3.29478842 6.94001165,3.32833552 C6.90739646,3.36188263 6.86779289,3.37865593 6.82119977,3.37865593 L5.56319161,3.37865593 C5.51659849,3.37865593 5.47699492,3.36188263 5.44437973,3.32833552 C5.41176454,3.29478842 5.39545719,3.25405326 5.39545719,3.20612882 L5.39545719,3.04797897 C5.39545719,2.59748926 5.21607634,2.2164957 4.85730926,1.90498686 C4.49854218,1.59347801 4.00233281,1.43772593 3.36866628,1.43772593 C2.85614188,1.43772593 2.45777661,1.54795048 2.17355853,1.76840289 C1.88934045,1.9888553 1.74723355,2.30035947 1.74723355,2.70292475 C1.74723355,2.99047137 1.82178143,3.22529759 1.97087944,3.40741045 C2.11997745,3.58952331 2.34362111,3.75486014 2.64181712,3.9034259 C2.94001314,4.05199165 3.40127818,4.24129034 4.02562609,4.47132764 C4.6872485,4.7301196 5.21607257,4.96494582 5.61211415,5.17581334 C6.00815574,5.38668087 6.34828047,5.68141173 6.63249854,6.06001479 C6.91671662,6.43861784 7.05882353,6.91066647 7.05882353,7.47617483 C7.05882353,8.3388147 6.74898388,9.02412387 6.12929528,9.53212291 C5.50960669,10.0401219 4.66395411,10.2941176 3.59231217,10.2941176 C2.86545938,10.2941176 2.23180235,10.1743084 1.69132207,9.93468616 C1.15084179,9.69506398 0.733839557,9.35959795 0.440302854,8.92827802 C0.14676615,8.49695808 0,7.98896667 0,7.40428853 L0,7.04485705 C0,6.99693261 0.01630735,6.95619745 0.0489225393,6.92265035 C0.0815377286,6.88910324 0.121141293,6.87232994 0.167734421,6.87232994 L1.41176471,6.87232994 C1.45835783,6.87232994 1.4979614,6.88910324 1.53057659,6.92265035 C1.56319178,6.95619745 1.57949913,6.99693261 1.57949913,7.04485705 L1.57949913,7.31802498 C1.57949913,7.7589298 1.77052808,8.12554624 2.15259173,8.41788531 C2.53465538,8.71022438 3.05649058,8.85639172 3.71811299,8.85639172 C4.28654914,8.85639172 4.71519949,8.73179005 5.00407688,8.48258298 C5.29295427,8.2333759 5.4373908,7.91228699 5.4373908,7.51930661 C5.4373908,7.25092976 5.35818367,7.02329209 5.19976704,6.83638679 C5.0413504,6.64948148 4.81537712,6.47935228 4.52184042,6.32599408 C4.22830372,6.17263589 3.78800526,5.98094101 3.20093186,5.75090371 C2.53930945,5.50169664 2.00349652,5.26687042 1.59347699,5.04641801 C1.18345747,4.8259656 0.841003122,4.52644236 0.566103669,4.1478393 C0.291204217,3.76923625 0.153756552,3.29718762 0.153756552,2.73167926 C0.153756552,1.88820917 0.451948096,1.22206948 1.04834013,0.733240223 C1.64473216,0.244410964 2.44146269,0 3.43855562,0 Z M16.1439507,0 C16.1938339,0 16.236234,0.0171566912 16.2711523,0.0514705882 C16.3060705,0.0857844853 16.3235294,0.127450735 16.3235294,0.176470588 L16.3235294,1.30882353 C16.3235294,1.35784338 16.3060705,1.39950963 16.2711523,1.43382353 C16.236234,1.46813743 16.1938339,1.48529412 16.1439507,1.48529412 L13.390411,1.48529412 C13.3405277,1.48529412 13.3155865,1.50980368 13.3155865,1.55882353 L13.3155865,10.1176471 C13.3155865,10.1666669 13.2981276,10.2083332 13.2632094,10.2426471 C13.2282911,10.276961 13.185891,10.2941176 13.1360078,10.2941176 L11.7592379,10.2941176 C11.7093547,10.2941176 11.6669546,10.276961 11.6320364,10.2426471 C11.5971181,10.2083332 11.5796593,10.1666669 11.5796593,10.1176471 L11.5796593,1.55882353 C11.5796593,1.50980368 11.554718,1.48529412 11.5048348,1.48529412 L8.85604927,1.48529412 C8.80616605,1.48529412 8.76376595,1.46813743 8.7288477,1.43382353 C8.69392945,1.39950963 8.67647059,1.35784338 8.67647059,1.30882353 L8.67647059,0.176470588 C8.67647059,0.127450735 8.69392945,0.0857844853 8.7288477,0.0514705882 C8.76376595,0.0171566912 8.80616605,0 8.85604927,0 L16.1439507,0 Z M21.3797321,0 C22.078629,0 22.6959787,0.124601668 23.2317997,0.373808741 C23.7676206,0.623015815 24.1846229,0.970462773 24.4828189,1.41616004 C24.7810149,1.86185731 24.9301107,2.37703728 24.9301107,2.96171541 L24.9301107,3.20612882 C24.9301107,3.25405326 24.9138033,3.29478842 24.8811881,3.32833552 C24.8485729,3.36188263 24.8089694,3.37865593 24.7623762,3.37865593 L23.5043681,3.37865593 C23.457775,3.37865593 23.4181714,3.36188263 23.3855562,3.32833552 C23.352941,3.29478842 23.3366337,3.25405326 23.3366337,3.20612882 L23.3366337,3.04797897 C23.3366337,2.59748926 23.1572528,2.2164957 22.7984857,1.90498686 C22.4397186,1.59347801 21.9435093,1.43772593 21.3098427,1.43772593 C20.7973183,1.43772593 20.3989531,1.54795048 20.114735,1.76840289 C19.8305169,1.9888553 19.68841,2.30035947 19.68841,2.70292475 C19.68841,2.99047137 19.7629579,3.22529759 19.9120559,3.40741045 C20.0611539,3.58952331 20.2847976,3.75486014 20.5829936,3.9034259 C20.8811896,4.05199165 21.3424547,4.24129034 21.9668026,4.47132764 C22.628425,4.7301196 23.157249,4.96494582 23.5532906,5.17581334 C23.9493322,5.38668087 24.2894569,5.68141173 24.573675,6.06001479 C24.8578931,6.43861784 25,6.91066647 25,7.47617483 C25,8.3388147 24.6901603,9.02412387 24.0704718,9.53212291 C23.4507832,10.0401219 22.6051306,10.2941176 21.5334886,10.2941176 C20.8066359,10.2941176 20.1729788,10.1743084 19.6324985,9.93468616 C19.0920183,9.69506398 18.675016,9.35959795 18.3814793,8.92827802 C18.0879426,8.49695808 17.9411765,7.98896667 17.9411765,7.40428853 L17.9411765,7.04485705 C17.9411765,6.99693261 17.9574838,6.95619745 17.990099,6.92265035 C18.0227142,6.88910324 18.0623178,6.87232994 18.1089109,6.87232994 L19.3529412,6.87232994 C19.3995343,6.87232994 19.4391379,6.88910324 19.4717531,6.92265035 C19.5043682,6.95619745 19.5206756,6.99693261 19.5206756,7.04485705 L19.5206756,7.31802498 C19.5206756,7.7589298 19.7117046,8.12554624 20.0937682,8.41788531 C20.4758318,8.71022438 20.997667,8.85639172 21.6592895,8.85639172 C22.2277256,8.85639172 22.656376,8.73179005 22.9452533,8.48258298 C23.2341307,8.2333759 23.3785673,7.91228699 23.3785673,7.51930661 C23.3785673,7.25092976 23.2993601,7.02329209 23.1409435,6.83638679 C22.9825269,6.64948148 22.7565536,6.47935228 22.4630169,6.32599408 C22.1694802,6.17263589 21.7291817,5.98094101 21.1421083,5.75090371 C20.4804859,5.50169664 19.944673,5.26687042 19.5346535,5.04641801 C19.1246339,4.8259656 18.7821796,4.52644236 18.5072801,4.1478393 C18.2323807,3.76923625 18.094933,3.29718762 18.094933,2.73167926 C18.094933,1.88820917 18.3931246,1.22206948 18.9895166,0.733240223 C19.5859086,0.244410964 20.3826392,0 21.3797321,0 Z" id="â– -Color-(Secondary)" fill="#FFFFFF"></path>
                            <path d="M4.98488885,16.1764706 C5.07829177,16.1764706 5.13900275,16.2254897 5.16702363,16.3235294 L8.22128375,26.2647059 C8.23062404,26.2843138 8.23529412,26.3088234 8.23529412,26.3382353 C8.23529412,26.426471 8.18392328,26.4705882 8.08118007,26.4705882 L6.68014332,26.4705882 C6.5867404,26.4705882 6.52602942,26.4215691 6.49800854,26.3235294 L6.03566641,24.75 C6.01698583,24.7107841 5.99363545,24.6911765 5.96561458,24.6911765 L2.26687755,24.6911765 C2.23885667,24.6911765 2.21550629,24.7107841 2.19682571,24.75 L1.73448358,26.3235294 C1.70646271,26.4215691 1.64575172,26.4705882 1.5523488,26.4705882 L0.15131205,26.4705882 C0.0952702997,26.4705882 0.0532396174,26.4534315 0.0252187423,26.4191176 C-0.00280213291,26.3848037 -0.00747220872,26.3333337 0.0112083747,26.2647059 L3.05145813,16.3235294 C3.079479,16.2254897 3.14018999,16.1764706 3.23359291,16.1764706 L4.98488885,16.1764706 Z M13.5856144,16.1764706 C14.2845114,16.1764706 14.901861,16.3010723 15.437682,16.5502793 C15.973503,16.7994864 16.3905052,17.1469334 16.6887012,17.5926306 C16.9868972,18.0383279 17.135993,18.5535079 17.135993,19.138186 L17.135993,19.3825994 C17.135993,19.4305238 17.1196857,19.471259 17.0870705,19.5048061 C17.0544553,19.5383532 17.0148517,19.5551265 16.9682586,19.5551265 L15.7102504,19.5551265 C15.6636573,19.5551265 15.6240537,19.5383532 15.5914386,19.5048061 C15.5588234,19.471259 15.542516,19.4305238 15.542516,19.3825994 L15.542516,19.2244496 C15.542516,18.7739598 15.3631352,18.3929663 15.0043681,18.0814574 C14.645601,17.7699486 14.1493916,17.6141965 13.5157251,17.6141965 C13.0032007,17.6141965 12.6048354,17.7244211 12.3206174,17.9448735 C12.0363993,18.1653259 11.8942924,18.4768301 11.8942924,18.8793953 C11.8942924,19.166942 11.9688403,19.4017682 12.1179383,19.583881 C12.2670363,19.7659939 12.4906799,19.9313307 12.7888759,20.0798965 C13.087072,20.2284622 13.548337,20.4177609 14.1726849,20.6477982 C14.8343073,20.9065902 15.3631314,21.1414164 15.759173,21.3522839 C16.1552146,21.5631515 16.4953393,21.8578823 16.7795574,22.2364854 C17.0637754,22.6150884 17.2058824,23.0871371 17.2058824,23.6526454 C17.2058824,24.5152853 16.8960427,25.2005945 16.2763541,25.7085935 C15.6566655,26.2165925 14.8110129,26.4705882 13.739371,26.4705882 C13.0125182,26.4705882 12.3788612,26.3507789 11.8383809,26.1111568 C11.2979006,25.8715346 10.8808984,25.5360685 10.5873617,25.1047486 C10.293825,24.6734287 10.1470588,24.1654373 10.1470588,23.5807591 L10.1470588,23.2213276 C10.1470588,23.1734032 10.1633662,23.132668 10.1959814,23.0991209 C10.2285966,23.0655738 10.2682001,23.0488005 10.3147932,23.0488005 L11.5588235,23.0488005 C11.6054167,23.0488005 11.6450202,23.0655738 11.6776354,23.0991209 C11.7102506,23.132668 11.7265579,23.1734032 11.7265579,23.2213276 L11.7265579,23.4944956 C11.7265579,23.9354004 11.9175869,24.3020168 12.2996506,24.5943559 C12.6817142,24.886695 13.2035494,25.0328623 13.8651718,25.0328623 C14.433608,25.0328623 14.8622583,24.9082606 15.1511357,24.6590536 C15.4400131,24.4098465 15.5844496,24.0887576 15.5844496,23.6957772 C15.5844496,23.4274003 15.5052425,23.1997627 15.3468259,23.0128574 C15.1884092,22.8259521 14.9624359,22.6558229 14.6688992,22.5024647 C14.3753625,22.3491065 13.9350641,22.1574116 13.3479907,21.9273743 C12.6863683,21.6781672 12.1505553,21.443341 11.7405358,21.2228886 C11.3305163,21.0024362 10.9880619,20.7029129 10.7131625,20.3243099 C10.438263,19.9457068 10.3008154,19.4736582 10.3008154,18.9081499 C10.3008154,18.0646798 10.5990069,17.3985401 11.195399,16.9097108 C11.791791,16.4208816 12.5885215,16.1764706 13.5856144,16.1764706 Z M22.5562027,16.1764706 C23.2550996,16.1764706 23.8724493,16.3010723 24.4082702,16.5502793 C24.9440912,16.7994864 25.3610934,17.1469334 25.6592895,17.5926306 C25.9574855,18.0383279 26.1065812,18.5535079 26.1065812,19.138186 L26.1065812,19.3825994 C26.1065812,19.4305238 26.0902739,19.471259 26.0576587,19.5048061 C26.0250435,19.5383532 25.98544,19.5551265 25.9388468,19.5551265 L24.6808387,19.5551265 C24.6342455,19.5551265 24.594642,19.5383532 24.5620268,19.5048061 C24.5294116,19.471259 24.5131043,19.4305238 24.5131043,19.3825994 L24.5131043,19.2244496 C24.5131043,18.7739598 24.3337234,18.3929663 23.9749563,18.0814574 C23.6161892,17.7699486 23.1199799,17.6141965 22.4863133,17.6141965 C21.9737889,17.6141965 21.5754237,17.7244211 21.2912056,17.9448735 C21.0069875,18.1653259 20.8648806,18.4768301 20.8648806,18.8793953 C20.8648806,19.166942 20.9394285,19.4017682 21.0885265,19.583881 C21.2376245,19.7659939 21.4612682,19.9313307 21.7594642,20.0798965 C22.0576602,20.2284622 22.5189252,20.4177609 23.1432732,20.6477982 C23.8048956,20.9065902 24.3337196,21.1414164 24.7297612,21.3522839 C25.1258028,21.5631515 25.4659275,21.8578823 25.7501456,22.2364854 C26.0343637,22.6150884 26.1764706,23.0871371 26.1764706,23.6526454 C26.1764706,24.5152853 25.8666309,25.2005945 25.2469423,25.7085935 C24.6272537,26.2165925 23.7816012,26.4705882 22.7099592,26.4705882 C21.9831064,26.4705882 21.3494494,26.3507789 20.8089691,26.1111568 C20.2684889,25.8715346 19.8514866,25.5360685 19.5579499,25.1047486 C19.2644132,24.6734287 19.1176471,24.1654373 19.1176471,23.5807591 L19.1176471,23.2213276 C19.1176471,23.1734032 19.1339544,23.132668 19.1665696,23.0991209 C19.1991848,23.0655738 19.2387884,23.0488005 19.2853815,23.0488005 L20.5294118,23.0488005 C20.5760049,23.0488005 20.6156085,23.0655738 20.6482236,23.0991209 C20.6808388,23.132668 20.6971462,23.1734032 20.6971462,23.2213276 L20.6971462,23.4944956 C20.6971462,23.9354004 20.8881751,24.3020168 21.2702388,24.5943559 C21.6523024,24.886695 22.1741376,25.0328623 22.83576,25.0328623 C23.4041962,25.0328623 23.8328465,24.9082606 24.1217239,24.6590536 C24.4106013,24.4098465 24.5550379,24.0887576 24.5550379,23.6957772 C24.5550379,23.4274003 24.4758307,23.1997627 24.3174141,23.0128574 C24.1589975,22.8259521 23.9330242,22.6558229 23.6394875,22.5024647 C23.3459508,22.3491065 22.9056523,22.1574116 22.3185789,21.9273743 C21.6569565,21.6781672 21.1211436,21.443341 20.7111241,21.2228886 C20.3011045,21.0024362 19.9586502,20.7029129 19.6837507,20.3243099 C19.4088513,19.9457068 19.2714036,19.4736582 19.2714036,18.9081499 C19.2714036,18.0646798 19.5695952,17.3985401 20.1659872,16.9097108 C20.7623792,16.4208816 21.5591097,16.1764706 22.5562027,16.1764706 Z M34.3950112,16.1764706 C34.4405148,16.1764706 34.4791924,16.1936273 34.5110449,16.2279412 C34.5428975,16.2622551 34.5588235,16.3039213 34.5588235,16.3529412 L34.5588235,17.4705882 C34.5588235,17.5196081 34.5428975,17.5612743 34.5110449,17.5955882 C34.4791924,17.6299021 34.4405148,17.6470588 34.3950112,17.6470588 L29.7400099,17.6470588 C29.6945063,17.6470588 29.6717548,17.6715684 29.6717548,17.7205882 L29.6717548,20.4705882 C29.6717548,20.5196081 29.6945063,20.5441176 29.7400099,20.5441176 L32.8660958,20.5441176 C32.9115995,20.5441176 32.950277,20.5612743 32.9821296,20.5955882 C33.0139821,20.6299021 33.0299082,20.6715684 33.0299082,20.7205882 L33.0299082,21.8382353 C33.0299082,21.8872551 33.0139821,21.9289214 32.9821296,21.9632353 C32.950277,21.9975492 32.9115995,22.0147059 32.8660958,22.0147059 L29.7400099,22.0147059 C29.6945063,22.0147059 29.6717548,22.0392154 29.6717548,22.0882353 L29.6717548,24.9264706 C29.6717548,24.9754904 29.6945063,25 29.7400099,25 L34.3950112,25 C34.4405148,25 34.4791924,25.0171567 34.5110449,25.0514706 C34.5428975,25.0857845 34.5588235,25.1274507 34.5588235,25.1764706 L34.5588235,26.2941176 C34.5588235,26.3431375 34.5428975,26.3848037 34.5110449,26.4191176 C34.4791924,26.4534315 34.4405148,26.4705882 34.3950112,26.4705882 L28.2520477,26.4705882 C28.206544,26.4705882 28.1678665,26.4534315 28.1360139,26.4191176 C28.1041613,26.3848037 28.0882353,26.3431375 28.0882353,26.2941176 L28.0882353,16.3529412 C28.0882353,16.3039213 28.1041613,16.2622551 28.1360139,16.2279412 C28.1678665,16.1936273 28.206544,16.1764706 28.2520477,16.1764706 L34.3950112,16.1764706 Z M44.1026822,16.1764706 L44.1176471,17.5479687 L41.124669,17.5479687 L41.124669,26.4705882 L39.4635662,26.4705882 L39.4635662,17.5479687 L36.4705882,17.5479687 L36.4705882,16.1764706 L44.1026822,16.1764706 Z M49.3209086,16.1764706 C50.0198055,16.1764706 50.6371552,16.3010723 51.1729761,16.5502793 C51.7087971,16.7994864 52.1257993,17.1469334 52.4239953,17.5926306 C52.7221914,18.0383279 52.8712871,18.5535079 52.8712871,19.138186 L52.8712871,19.3825994 C52.8712871,19.4305238 52.8549798,19.471259 52.8223646,19.5048061 C52.7897494,19.5383532 52.7501458,19.5551265 52.7035527,19.5551265 L51.4455446,19.5551265 C51.3989514,19.5551265 51.3593479,19.5383532 51.3267327,19.5048061 C51.2941175,19.471259 51.2778101,19.4305238 51.2778101,19.3825994 L51.2778101,19.2244496 C51.2778101,18.7739598 51.0984293,18.3929663 50.7396622,18.0814574 C50.3808951,17.7699486 49.8846858,17.6141965 49.2510192,17.6141965 C48.7384948,17.6141965 48.3401296,17.7244211 48.0559115,17.9448735 C47.7716934,18.1653259 47.6295865,18.4768301 47.6295865,18.8793953 C47.6295865,19.166942 47.7041344,19.4017682 47.8532324,19.583881 C48.0023304,19.7659939 48.225974,19.9313307 48.5241701,20.0798965 C48.8223661,20.2284622 49.2836311,20.4177609 49.907979,20.6477982 C50.5696014,20.9065902 51.0984255,21.1414164 51.4944671,21.3522839 C51.8905087,21.5631515 52.2306334,21.8578823 52.5148515,22.2364854 C52.7990696,22.6150884 52.9411765,23.0871371 52.9411765,23.6526454 C52.9411765,24.5152853 52.6313368,25.2005945 52.0116482,25.7085935 C51.3919596,26.2165925 50.546307,26.4705882 49.4746651,26.4705882 C48.7478123,26.4705882 48.1141553,26.3507789 47.573675,26.1111568 C47.0331947,25.8715346 46.6161925,25.5360685 46.3226558,25.1047486 C46.0291191,24.6734287 45.8823529,24.1654373 45.8823529,23.5807591 L45.8823529,23.2213276 C45.8823529,23.1734032 45.8986603,23.132668 45.9312755,23.0991209 C45.9638907,23.0655738 46.0034942,23.0488005 46.0500874,23.0488005 L47.2941176,23.0488005 C47.3407108,23.0488005 47.3803143,23.0655738 47.4129295,23.0991209 C47.4455447,23.132668 47.4618521,23.1734032 47.4618521,23.2213276 L47.4618521,23.4944956 C47.4618521,23.9354004 47.652881,24.3020168 48.0349447,24.5943559 C48.4170083,24.886695 48.9388435,25.0328623 49.6004659,25.0328623 C50.1689021,25.0328623 50.5975524,24.9082606 50.8864298,24.6590536 C51.1753072,24.4098465 51.3197437,24.0887576 51.3197437,23.6957772 C51.3197437,23.4274003 51.2405366,23.1997627 51.08212,23.0128574 C50.9237033,22.8259521 50.6977301,22.6558229 50.4041934,22.5024647 C50.1106567,22.3491065 49.6703582,22.1574116 49.0832848,21.9273743 C48.4216624,21.6781672 47.8858495,21.443341 47.4758299,21.2228886 C47.0658104,21.0024362 46.7233561,20.7029129 46.4484566,20.3243099 C46.1735572,19.9457068 46.0361095,19.4736582 46.0361095,18.9081499 C46.0361095,18.0646798 46.334301,17.3985401 46.9306931,16.9097108 C47.5270851,16.4208816 48.3238156,16.1764706 49.3209086,16.1764706 Z M4.10223569,18.2794118 C4.08355511,18.2794118 4.06954488,18.2990194 4.06020459,18.3382353 L2.6311471,23.2647059 C2.62180681,23.3235297 2.64048712,23.3529412 2.68718857,23.3529412 L5.53129318,23.3529412 C5.58733493,23.3529412 5.60601524,23.3235297 5.58733465,23.2647059 L4.1442668,18.3382353 C4.13492651,18.2990194 4.12091628,18.2794118 4.10223569,18.2794118 Z" id="â– -Color-(Primary)" fill="#8DC63F"></path>
                        </g>
                        <g id="â– -Logo" transform="translate(0.000000, 4.411765)">
                            <path d="M29.4117647,26.6435986 L14.7058824,41.1764706 L14.7058824,36.3321799 L24.5098039,26.6435986 L29.4117647,26.6435986 Z M14.7058824,0 L14.7058824,4.84429066 L4.90196078,14.532872 L0,14.532872 L14.7058824,0 Z" id="Color-(Secondary)" fill="#FFFFFF"></path>
                            <path d="M4.90196078,14.532872 L14.7058824,24.2214533 L14.7058824,29.0657439 L0,14.532872 L4.90196078,14.532872 Z M14.7058824,12.1107266 L29.4117647,26.6435986 L24.5098039,26.6435986 L14.7058824,16.9550173 L14.7058824,12.1107266 Z" id="Color-(Primary)" fill="#8DC63F"></path>
                        </g>
                    </g>
                </g>
            </g>
        </g>
    </g>
</svg>