<svg xmlns="http://www.w3.org/2000/svg" xmlns:xlink="http://www.w3.org/1999/xlink" width="16" height="16" version="1.1" style=""><rect id="backgroundrect" width="100%" height="100%" x="0" y="0" fill="none" stroke="none"/>
    <title>F1ECBA9F-5030-476F-8D33-2FCAE8D8617E</title>
    <defs>
        <path d="M15.3665625,11.3334375 C15.7159375,11.3334375 16,11.6175 16,11.9665625 L16,11.9665625 L16,15.3665625 C16,15.7159375 15.7159375,16 15.3665625,16 L15.3665625,16 L0.6334375,16 C0.2840625,16 1.77635684e-15,15.7159375 1.77635684e-15,15.3665625 L1.77635684e-15,15.3665625 L1.77635684e-15,11.9665625 C1.77635684e-15,11.6175 0.2840625,11.3334375 0.6334375,11.3334375 L0.6334375,11.3334375 Z M2.3334375,12.6 C1.7453125,12.6 1.2665625,13.0784375 1.2665625,13.6665625 C1.2665625,14.2546875 1.7453125,14.7334375 2.3334375,14.7334375 C2.9215625,14.7334375 3.4,14.2546875 3.4,13.6665625 C3.4,13.0784375 2.9215625,12.6 2.3334375,12.6 Z M11.9665625,12.6 C11.690625,12.6 11.4665625,12.82375 11.4665625,13.1 L11.4665625,13.1 L11.4665625,14.2334375 C11.4665625,14.509375 11.690625,14.7334375 11.9665625,14.7334375 C12.2428125,14.7334375 12.4665625,14.509375 12.4665625,14.2334375 L12.4665625,14.2334375 L12.4665625,13.1 C12.4665625,12.82375 12.2428125,12.6 11.9665625,12.6 Z M14.2334375,12.6 C13.9571875,12.6 13.7334375,12.82375 13.7334375,13.1 L13.7334375,13.1 L13.7334375,14.2334375 C13.7334375,14.509375 13.9571875,14.7334375 14.2334375,14.7334375 C14.509375,14.7334375 14.7334375,14.509375 14.7334375,14.2334375 L14.7334375,14.2334375 L14.7334375,13.1 C14.7334375,12.82375 14.509375,12.6 14.2334375,12.6 Z M9.7,13.1665625 L5.1665625,13.1665625 C4.890625,13.1665625 4.6665625,13.390625 4.6665625,13.6665625 C4.6665625,13.9428125 4.890625,14.1665625 5.1665625,14.1665625 L5.1665625,14.1665625 L9.7,14.1665625 C9.97625,14.1665625 10.2,13.9428125 10.2,13.6665625 C10.2,13.390625 9.97625,13.1665625 9.7,13.1665625 L9.7,13.1665625 Z M15.3665625,5.6665625 C15.7159375,5.6665625 16,5.950625 16,6.3 L16,6.3 L16,9.7 C16,10.049375 15.7159375,10.3334375 15.3665625,10.3334375 L15.3665625,10.3334375 L0.6334375,10.3334375 C0.2840625,10.3334375 1.77635684e-15,10.049375 1.77635684e-15,9.7 L1.77635684e-15,9.7 L1.77635684e-15,6.3 C1.77635684e-15,5.950625 0.2840625,5.6665625 0.6334375,5.6665625 L0.6334375,5.6665625 Z M2.3334375,6.9334375 C1.7453125,6.9334375 1.2665625,7.411875 1.2665625,8 C1.2665625,8.588125 1.7453125,9.0665625 2.3334375,9.0665625 C2.9215625,9.0665625 3.4,8.588125 3.4,8 C3.4,7.411875 2.9215625,6.9334375 2.3334375,6.9334375 Z M11.9665625,6.9334375 C11.690625,6.9334375 11.4665625,7.1571875 11.4665625,7.4334375 L11.4665625,7.4334375 L11.4665625,8.5665625 C11.4665625,8.8428125 11.690625,9.0665625 11.9665625,9.0665625 C12.2428125,9.0665625 12.4665625,8.8428125 12.4665625,8.5665625 L12.4665625,8.5665625 L12.4665625,7.4334375 C12.4665625,7.1571875 12.2428125,6.9334375 11.9665625,6.9334375 Z M14.2334375,6.9334375 C13.9571875,6.9334375 13.7334375,7.1571875 13.7334375,7.4334375 L13.7334375,7.4334375 L13.7334375,8.5665625 C13.7334375,8.8428125 13.9571875,9.0665625 14.2334375,9.0665625 C14.509375,9.0665625 14.7334375,8.8428125 14.7334375,8.5665625 L14.7334375,8.5665625 L14.7334375,7.4334375 C14.7334375,7.1571875 14.509375,6.9334375 14.2334375,6.9334375 Z M9.7,7.5 L5.1665625,7.5 C4.890625,7.5 4.6665625,7.72375 4.6665625,8 C4.6665625,8.27625 4.890625,8.5 5.1665625,8.5 L5.1665625,8.5 L9.7,8.5 C9.97625,8.5 10.2,8.27625 10.2,8 C10.2,7.72375 9.97625,7.5 9.7,7.5 L9.7,7.5 Z M15.3665625,-3.48165941e-14 C15.7159375,-3.48165941e-14 16,0.2840625 16,0.6334375 L16,0.6334375 L16,4.0334375 C16,4.3825 15.7159375,4.6665625 15.3665625,4.6665625 L15.3665625,4.6665625 L0.6334375,4.6665625 C0.2840625,4.6665625 1.77635684e-15,4.3825 1.77635684e-15,4.0334375 L1.77635684e-15,4.0334375 L1.77635684e-15,0.6334375 C1.77635684e-15,0.2840625 0.2840625,-3.48165941e-14 0.6334375,-3.48165941e-14 L0.6334375,-3.48165941e-14 Z M2.3334375,1.2665625 C1.7453125,1.2665625 1.2665625,1.7453125 1.2665625,2.3334375 C1.2665625,2.9215625 1.7453125,3.4 2.3334375,3.4 C2.9215625,3.4 3.4,2.9215625 3.4,2.3334375 C3.4,1.7453125 2.9215625,1.2665625 2.3334375,1.2665625 Z M11.9665625,1.2665625 C11.690625,1.2665625 11.4665625,1.490625 11.4665625,1.7665625 L11.4665625,1.7665625 L11.4665625,2.9 C11.4665625,3.17625 11.690625,3.4 11.9665625,3.4 C12.2428125,3.4 12.4665625,3.17625 12.4665625,2.9 L12.4665625,2.9 L12.4665625,1.7665625 C12.4665625,1.490625 12.2428125,1.2665625 11.9665625,1.2665625 Z M14.2334375,1.2665625 C13.9571875,1.2665625 13.7334375,1.490625 13.7334375,1.7665625 L13.7334375,1.7665625 L13.7334375,2.9 C13.7334375,3.17625 13.9571875,3.4 14.2334375,3.4 C14.509375,3.4 14.7334375,3.17625 14.7334375,2.9 L14.7334375,2.9 L14.7334375,1.7665625 C14.7334375,1.490625 14.509375,1.2665625 14.2334375,1.2665625 Z M9.7,1.8334375 L5.1665625,1.8334375 C4.890625,1.8334375 4.6665625,2.0571875 4.6665625,2.3334375 C4.6665625,2.609375 4.890625,2.8334375 5.1665625,2.8334375 L5.1665625,2.8334375 L9.7,2.8334375 C9.97625,2.8334375 10.2,2.609375 10.2,2.3334375 C10.2,2.0571875 9.97625,1.8334375 9.7,1.8334375 L9.7,1.8334375 Z" id="path-1"/>
    </defs>
    
<g class="currentLayer" style=""><title>Layer 1</title><g id="Assets" stroke="none" stroke-width="1" fill="none" fill-rule="evenodd" class="selected" opacity="1" filter="">
        <g id="0.2-Assets" fill="none" stroke="none" opacity="1" filter="">
            <g id="Wrapper" fill="none" stroke="none" opacity="1" filter="">
                <rect id="■-Shape" x="-561" y="-222" width="1440" height="1369" fill="none" stroke="none" opacity="1" filter=""/>
            </g>
            <g id="Container" fill="none" stroke="none" opacity="1" filter="">
                <g id="Backgorund" fill="none" stroke="none" opacity="1" filter="">
                    <rect id="■-Shape" x="-321" y="-91" width="1180" height="1205" fill="none" stroke="none" opacity="1" filter=""/>
                </g>
                <g id="Filter" fill="none" stroke="none" opacity="1" filter="">
                    <g id="Form" fill="none" stroke="none" opacity="1" filter="">
                        <g id="🌗-Background" stroke="none" fill="none" opacity="1" filter="">
                            <rect id="■-Shape" x="-11.5" y="-11.5" width="268" height="39" rx="4" fill="none" stroke="none" opacity="1" filter=""/>
                        </g>
                        <g id="Group" fill="none" stroke="none" opacity="1" filter="">
                            <path d="M27.5,-11.5 L27.5,27.5 L-8,27.5 C-8.96649831000002,27.5 -9.84149831000002,27.10824919999999 -10.474873730000013,26.47487369999999 C-11.108249156000056,25.841498300000012 -11.5,24.966498300000012 -11.5,24 L-11.5,24 L-11.5,-8 C-11.5,-8.966498309999992 -11.108249156000056,-9.841498309999992 -10.474873730000013,-10.474873730000013 C-9.84149831000002,-11.108249156 -8.96649831000002,-11.5 -8,-11.5 L-8,-11.5 L27.5,-11.5 z" id="■-Shape" stroke="none" fill="none" transform="" opacity="1" filter=""/>
                            <g id="Color" fill="none" stroke="none" opacity="1" filter="">
                                <mask id="mask-2" fill="currentColor" transform="translate(12,12) translate(289,0) translate(20,90) translate(240,120) translate(-561,-222) ">
                                    <use xlink:href="#path-1" id="svg_1"/>
                                </mask>
                                <use id="Mask" fill="#000000" fill-rule="nonzero" xlink:href="#path-1" y="0" x="0"/>
                                <g mask="url(#mask-2)" fill="none" id="■-Color" stroke="none" opacity="1" filter="">
                                    <rect x="0" y="0" width="16" height="16" id="svg_2" fill="none" stroke="none" opacity="1" filter=""/>
                                </g>
                            </g>
                        </g>
                    </g>
                </g>
            </g>
        </g>
    </g></g></svg>