<?xml version="1.0" encoding="UTF-8"?>
<svg width="16px" height="16px" viewBox="0 0 16 16" version="1.1" xmlns="http://www.w3.org/2000/svg" xmlns:xlink="http://www.w3.org/1999/xlink">
    <title>F1ECBA9F-5030-476F-8D33-2FCAE8D8617E</title>
    <defs>
        <path d="M15.3665625,11.3334375 C15.7159375,11.3334375 16,11.6175 16,11.9665625 L16,11.9665625 L16,15.3665625 C16,15.7159375 15.7159375,16 15.3665625,16 L15.3665625,16 L0.6334375,16 C0.2840625,16 1.77635684e-15,15.7159375 1.77635684e-15,15.3665625 L1.77635684e-15,15.3665625 L1.77635684e-15,11.9665625 C1.77635684e-15,11.6175 0.2840625,11.3334375 0.6334375,11.3334375 L0.6334375,11.3334375 Z M2.3334375,12.6 C1.7453125,12.6 1.2665625,13.0784375 1.2665625,13.6665625 C1.2665625,14.2546875 1.7453125,14.7334375 2.3334375,14.7334375 C2.9215625,14.7334375 3.4,14.2546875 3.4,13.6665625 C3.4,13.0784375 2.9215625,12.6 2.3334375,12.6 Z M11.9665625,12.6 C11.690625,12.6 11.4665625,12.82375 11.4665625,13.1 L11.4665625,13.1 L11.4665625,14.2334375 C11.4665625,14.509375 11.690625,14.7334375 11.9665625,14.7334375 C12.2428125,14.7334375 12.4665625,14.509375 12.4665625,14.2334375 L12.4665625,14.2334375 L12.4665625,13.1 C12.4665625,12.82375 12.2428125,12.6 11.9665625,12.6 Z M14.2334375,12.6 C13.9571875,12.6 13.7334375,12.82375 13.7334375,13.1 L13.7334375,13.1 L13.7334375,14.2334375 C13.7334375,14.509375 13.9571875,14.7334375 14.2334375,14.7334375 C14.509375,14.7334375 14.7334375,14.509375 14.7334375,14.2334375 L14.7334375,14.2334375 L14.7334375,13.1 C14.7334375,12.82375 14.509375,12.6 14.2334375,12.6 Z M9.7,13.1665625 L5.1665625,13.1665625 C4.890625,13.1665625 4.6665625,13.390625 4.6665625,13.6665625 C4.6665625,13.9428125 4.890625,14.1665625 5.1665625,14.1665625 L5.1665625,14.1665625 L9.7,14.1665625 C9.97625,14.1665625 10.2,13.9428125 10.2,13.6665625 C10.2,13.390625 9.97625,13.1665625 9.7,13.1665625 L9.7,13.1665625 Z M15.3665625,5.6665625 C15.7159375,5.6665625 16,5.950625 16,6.3 L16,6.3 L16,9.7 C16,10.049375 15.7159375,10.3334375 15.3665625,10.3334375 L15.3665625,10.3334375 L0.6334375,10.3334375 C0.2840625,10.3334375 1.77635684e-15,10.049375 1.77635684e-15,9.7 L1.77635684e-15,9.7 L1.77635684e-15,6.3 C1.77635684e-15,5.950625 0.2840625,5.6665625 0.6334375,5.6665625 L0.6334375,5.6665625 Z M2.3334375,6.9334375 C1.7453125,6.9334375 1.2665625,7.411875 1.2665625,8 C1.2665625,8.588125 1.7453125,9.0665625 2.3334375,9.0665625 C2.9215625,9.0665625 3.4,8.588125 3.4,8 C3.4,7.411875 2.9215625,6.9334375 2.3334375,6.9334375 Z M11.9665625,6.9334375 C11.690625,6.9334375 11.4665625,7.1571875 11.4665625,7.4334375 L11.4665625,7.4334375 L11.4665625,8.5665625 C11.4665625,8.8428125 11.690625,9.0665625 11.9665625,9.0665625 C12.2428125,9.0665625 12.4665625,8.8428125 12.4665625,8.5665625 L12.4665625,8.5665625 L12.4665625,7.4334375 C12.4665625,7.1571875 12.2428125,6.9334375 11.9665625,6.9334375 Z M14.2334375,6.9334375 C13.9571875,6.9334375 13.7334375,7.1571875 13.7334375,7.4334375 L13.7334375,7.4334375 L13.7334375,8.5665625 C13.7334375,8.8428125 13.9571875,9.0665625 14.2334375,9.0665625 C14.509375,9.0665625 14.7334375,8.8428125 14.7334375,8.5665625 L14.7334375,8.5665625 L14.7334375,7.4334375 C14.7334375,7.1571875 14.509375,6.9334375 14.2334375,6.9334375 Z M9.7,7.5 L5.1665625,7.5 C4.890625,7.5 4.6665625,7.72375 4.6665625,8 C4.6665625,8.27625 4.890625,8.5 5.1665625,8.5 L5.1665625,8.5 L9.7,8.5 C9.97625,8.5 10.2,8.27625 10.2,8 C10.2,7.72375 9.97625,7.5 9.7,7.5 L9.7,7.5 Z M15.3665625,-3.48165941e-14 C15.7159375,-3.48165941e-14 16,0.2840625 16,0.6334375 L16,0.6334375 L16,4.0334375 C16,4.3825 15.7159375,4.6665625 15.3665625,4.6665625 L15.3665625,4.6665625 L0.6334375,4.6665625 C0.2840625,4.6665625 1.77635684e-15,4.3825 1.77635684e-15,4.0334375 L1.77635684e-15,4.0334375 L1.77635684e-15,0.6334375 C1.77635684e-15,0.2840625 0.2840625,-3.48165941e-14 0.6334375,-3.48165941e-14 L0.6334375,-3.48165941e-14 Z M2.3334375,1.2665625 C1.7453125,1.2665625 1.2665625,1.7453125 1.2665625,2.3334375 C1.2665625,2.9215625 1.7453125,3.4 2.3334375,3.4 C2.9215625,3.4 3.4,2.9215625 3.4,2.3334375 C3.4,1.7453125 2.9215625,1.2665625 2.3334375,1.2665625 Z M11.9665625,1.2665625 C11.690625,1.2665625 11.4665625,1.490625 11.4665625,1.7665625 L11.4665625,1.7665625 L11.4665625,2.9 C11.4665625,3.17625 11.690625,3.4 11.9665625,3.4 C12.2428125,3.4 12.4665625,3.17625 12.4665625,2.9 L12.4665625,2.9 L12.4665625,1.7665625 C12.4665625,1.490625 12.2428125,1.2665625 11.9665625,1.2665625 Z M14.2334375,1.2665625 C13.9571875,1.2665625 13.7334375,1.490625 13.7334375,1.7665625 L13.7334375,1.7665625 L13.7334375,2.9 C13.7334375,3.17625 13.9571875,3.4 14.2334375,3.4 C14.509375,3.4 14.7334375,3.17625 14.7334375,2.9 L14.7334375,2.9 L14.7334375,1.7665625 C14.7334375,1.490625 14.509375,1.2665625 14.2334375,1.2665625 Z M9.7,1.8334375 L5.1665625,1.8334375 C4.890625,1.8334375 4.6665625,2.0571875 4.6665625,2.3334375 C4.6665625,2.609375 4.890625,2.8334375 5.1665625,2.8334375 L5.1665625,2.8334375 L9.7,2.8334375 C9.97625,2.8334375 10.2,2.609375 10.2,2.3334375 C10.2,2.0571875 9.97625,1.8334375 9.7,1.8334375 L9.7,1.8334375 Z" id="path-1"></path>
    </defs>
    <g id="Assets" stroke="none" stroke-width="1" fill="currentColor" fill-rule="evenodd">
        <g id="0.2-Assets" transform="translate(-561.000000, -222.000000)">
            <g id="Wrapper" fill="currentColor">
                <rect id="■-Shape" x="0" y="0" width="1440" height="1369"></rect>
            </g>
            <g id="Container" transform="translate(240.000000, 120.000000)">
                <g id="Backgorund" transform="translate(0.000000, 11.000000)" fill="currentColor">
                    <rect id="■-Shape" x="0" y="0" width="1180" height="1205"></rect>
                </g>
                <g id="Filter" transform="translate(20.000000, 90.000000)">
                    <g id="Form" transform="translate(289.000000, 0.000000)">
                        <g id="🌗-Background" stroke="currentColor">
                            <rect id="■-Shape" x="0.5" y="0.5" width="268" height="39" rx="4"></rect>
                        </g>
                        <g id="Group">
                            <path d="M39.5,0.5 L39.5,39.5 L4,39.5 C3.03350169,39.5 2.15850169,39.1082492 1.52512627,38.4748737 C0.891750844,37.8414983 0.5,36.9664983 0.5,36 L0.5,36 L0.5,4 C0.5,3.03350169 0.891750844,2.15850169 1.52512627,1.52512627 C2.15850169,0.891750844 3.03350169,0.5 4,0.5 L4,0.5 L39.5,0.5 Z" id="■-Shape" stroke="#CECECE" fill="#DEDEDE"></path>
                            <g id="Color" transform="translate(12.000000, 12.000000)">
                                <mask id="mask-2" fill="currentColor">
                                    <use xlink:href="#path-1"></use>
                                </mask>
                                <use id="Mask" fill="currentColor" fill-rule="nonzero" xlink:href="#path-1"></use>
                                <g mask="url(#mask-2)" fill="currentColor" id="■-Color">
                                    <rect x="0" y="0" width="16" height="16"></rect>
                                </g>
                            </g>
                        </g>
                    </g>
                </g>
            </g>
        </g>
    </g>
</svg>
