<?xml version="1.0" encoding="UTF-8"?>
<svg width="110px" height="57px" viewBox="0 0 110 57" version="1.1" xmlns="http://www.w3.org/2000/svg" xmlns:xlink="http://www.w3.org/1999/xlink">
    <!-- Generator: sketchtool 61.2 (101010) - https://sketch.com -->
    <title>30BCB61E-CB8C-4396-B51A-4317EAAAC74A@1.5x</title>
    <desc>Created with sketchtool.</desc>
    <defs>
        <linearGradient x1="-0.523980453%" y1="49.9999129%" x2="116.749138%" y2="49.9999129%" id="linearGradient-1">
            <stop stop-color="#E93E3A" offset="0%"></stop>
            <stop stop-color="#ED683C" offset="35.4%"></stop>
            <stop stop-color="#F3903F" offset="70.5%"></stop>
            <stop stop-color="#FDC70C" offset="100%"></stop>
        </linearGradient>
        <path d="M12.2637259,7.46599486 C12.3465944,7.50854557 12.4217776,7.57071914 12.4850986,7.64900416 L15.3908447,11.2422652 C15.6630078,11.567179 15.6705262,12.1034003 15.4077192,12.4398812 C15.1447452,12.7765687 14.7110218,12.7858638 14.4388586,12.4607435 C14.4331782,12.4539271 14.4274977,12.4471107 14.4219842,12.4398812 L12.6850858,10.2918976 L12.6850858,20.9529108 C12.6850858,21.4207618 12.3783384,21.8 11.9999165,21.8 C11.6216616,21.8 11.3149142,21.4207618 11.3149142,20.9529108 L11.3149142,10.2916911 L9.57801577,12.4398812 C9.31504176,12.7765687 8.88131833,12.7858638 8.60915524,12.4607435 C8.33699216,12.1358297 8.32947385,11.5996084 8.59228081,11.2631275 C8.59779423,11.2561046 8.60347476,11.2490816 8.60915524,11.2422652 L11.5149014,7.64900416 C11.5782224,7.57071914 11.6534055,7.50854557 11.7362741,7.46599486 C11.9048515,7.37800171 12.0951485,7.37800171 12.2637259,7.46599486 Z M10.550513,0.348802079 C14.6176279,-0.475739578 18.5717675,2.20946865 19.3823707,6.34651835 C22.0062567,6.67320599 23.983418,8.9313363 24,11.6202696 C24.0178416,14.572937 21.6792323,16.9815597 18.7764782,17 L18.7764782,17 L15.0219225,17 C14.607191,17 14.2710113,16.6580384 14.2710113,16.2361755 C14.2710113,15.8143127 14.607191,15.4723524 15.0219225,15.4723524 L15.0219225,15.4723524 L18.7762951,15.4723524 C20.8499524,15.4723524 22.5308508,13.7625506 22.5308508,11.6534226 C22.5308508,9.54410836 20.8499524,7.83430662 18.7762951,7.83430662 C18.3840854,7.83691418 18.0486382,7.54840843 17.9856503,7.15448351 C17.6652176,4.33610444 15.4795004,2.11280343 12.7087646,1.78686081 C9.41306846,1.39908227 6.43231191,3.80230356 6.05108858,7.15466975 C6.00897454,7.54151704 5.68744321,7.83449291 5.30475504,7.83430662 C3.23109771,7.82201395 1.54031166,9.52175801 1.52804365,11.630886 C1.51577569,13.740014 3.18678643,15.4598734 5.26044375,15.4723524 L5.26044375,15.4723524 L9.01481638,15.4723524 C9.42954783,15.4723524 9.76572756,15.8143127 9.76572756,16.2361755 C9.76572756,16.6580384 9.42954783,17 9.01481638,17 L9.01481638,17 L5.26044375,17 C2.58876743,17.0018612 0.340794718,14.9649994 0.0350103925,12.2652634 C-0.297141013,9.33178004 1.77138939,6.67991109 4.65510063,6.34186204 C5.24982372,3.31636973 7.57579893,0.951888987 10.550513,0.348802079 Z" id="path-2"></path>
        <path d="M15.9087348,4.32990625 L11.5829558,0.0943125 C11.5213716,0.0340625 11.4364074,0 11.3476626,0 L4.90039837,0 C4.1788659,0 3.5918435,0.5529375 3.5918435,1.2325625 L3.5918435,5.53846875 L0.979011819,5.53846875 C0.439180702,5.53846875 0,5.9521875 0,6.46075 L0,11.07775 C0,11.5862813 0.439180702,12 0.979011819,12 L3.5918435,12 L3.5918435,14.7695938 C3.5918435,15.4480312 4.1788659,16 4.90039837,16 L14.6914451,16 C15.4129776,16 16,15.4483437 16,14.7702813 L16,4.54328125 C16,4.46371875 15.9672679,4.38725 15.9087348,4.32990625 Z M11.4285809,0.83065625 L14.9796668,4.3076875 L11.4285809,4.3076875 L11.4285809,0.83065625 Z M15.3469164,14.7702813 C15.3469164,15.1090313 15.052858,15.384625 14.691412,15.384625 L4.90039837,15.384625 C4.53895229,15.384625 4.2448939,15.10875 4.2448939,14.769625 L4.2448939,12 L9.79651869,12 C10.3363498,12 10.7755305,11.5862813 10.7755305,11.07775 L10.7755305,6.46075 C10.7755305,5.9521875 10.3363498,5.53846875 9.79651869,5.53846875 L4.2448939,5.53846875 L4.2448939,1.2325625 C4.2448939,0.89221875 4.53895229,0.615375 4.90039837,0.615375 L10.7754973,0.615375 L10.7754973,4.615375 C10.7754973,4.7853125 10.921714,4.9230625 11.1020225,4.9230625 L15.3469164,4.9230625 L15.3469164,14.7702813 Z M1.33333333,10.374198 L2.38695934,8.87839785 L1.38001297,7.33745699 L2.17801241,7.33745699 L2.84708715,8.35927929 L3.57173289,7.33745699 L4.12521997,7.33745699 L3.11605075,8.76964969 L4.1607854,10.374198 L3.3650088,10.374198 L2.65147726,9.28876825 L1.88682041,10.374198 L1.33333333,10.374198 Z M4.67203853,10.374198 L4.67203853,7.33745699 L5.35667315,7.33745699 L5.35667315,9.94330904 L6.83930721,9.94330904 L6.83930721,10.374198 L4.67203853,10.374198 Z M7.13494489,10.3475239 L7.13494489,9.82635347 C7.48911912,9.96314429 7.79216323,10.0315387 8.04408632,10.0315387 C8.22043248,10.0315387 8.35935857,9.99528965 8.46086876,9.92279052 C8.56237895,9.85029139 8.61313328,9.75180347 8.61313328,9.62732383 C8.61313328,9.52883444 8.58127289,9.44573526 8.51755117,9.37802381 C8.45382945,9.31031236 8.33305637,9.22994896 8.1552283,9.1369312 L7.93516718,9.02407934 C7.64026897,8.87087362 7.43206507,8.72416767 7.31054923,8.58395708 C7.18903338,8.44374649 7.12827637,8.27994195 7.12827637,8.09253853 C7.12827637,7.84221133 7.22793269,7.64113184 7.42724831,7.48929403 C7.62656393,7.33745623 7.8899678,7.26153846 8.21746782,7.26153846 C8.47976421,7.26153846 8.77539893,7.2964196 9.10438085,7.36618291 L9.10438085,7.85247184 C8.76798943,7.73619965 8.50199227,7.67806442 8.3063814,7.67806442 C8.15522755,7.67806442 8.034084,7.70918386 7.94294711,7.77142369 C7.85181023,7.83366351 7.80624247,7.9153948 7.80624247,8.01662 C7.80624247,8.1000624 7.83810286,8.17324439 7.90182458,8.23616817 C7.9655463,8.29909194 8.08557845,8.3763776 8.26192461,8.46802744 L8.49754561,8.58908671 C8.81467233,8.75323569 9.03324938,8.90438728 9.15328332,9.04254601 C9.27331726,9.18070473 9.33333333,9.34895491 9.33333333,9.5473016 C9.33333333,9.82909069 9.21996964,10.0500045 8.99323886,10.2100498 C8.76650808,10.3700951 8.45383176,10.4501165 8.05520052,10.4501165 C7.79142222,10.4501165 7.48467342,10.4159193 7.13494489,10.3475239 Z" id="path-4"></path>
        <path d="M15.9087348,4.32990625 L11.5829558,0.0943125 C11.5213716,0.0340625 11.4364074,0 11.3476626,0 L4.90039837,0 C4.1788659,0 3.5918435,0.5529375 3.5918435,1.2325625 L3.5918435,5.53846875 L0.979011819,5.53846875 C0.439180702,5.53846875 0,5.9521875 0,6.46075 L0,11.07775 C0,11.5862813 0.439180702,12 0.979011819,12 L3.5918435,12 L3.5918435,14.7695938 C3.5918435,15.4480312 4.1788659,16 4.90039837,16 L14.6914451,16 C15.4129776,16 16,15.4483437 16,14.7702813 L16,4.54328125 C16,4.46371875 15.9672679,4.38725 15.9087348,4.32990625 Z M11.4285809,0.83065625 L14.9796668,4.3076875 L11.4285809,4.3076875 L11.4285809,0.83065625 Z M15.3469164,14.7702813 C15.3469164,15.1090313 15.052858,15.384625 14.691412,15.384625 L4.90039837,15.384625 C4.53895229,15.384625 4.2448939,15.10875 4.2448939,14.769625 L4.2448939,12 L9.79651869,12 C10.3363498,12 10.7755305,11.5862813 10.7755305,11.07775 L10.7755305,6.46075 C10.7755305,5.9521875 10.3363498,5.53846875 9.79651869,5.53846875 L4.2448939,5.53846875 L4.2448939,1.2325625 C4.2448939,0.89221875 4.53895229,0.615375 4.90039837,0.615375 L10.7754973,0.615375 L10.7754973,4.615375 C10.7754973,4.7853125 10.921714,4.9230625 11.1020225,4.9230625 L15.3469164,4.9230625 L15.3469164,14.7702813 Z M2.63924854,7.43129694 L3.23838538,7.43129694 L3.23838538,9.16411609 C3.23838538,9.39067835 3.21672189,9.5649544 3.17339426,9.68694946 C3.11517276,9.84628995 3.00956326,9.97419612 2.85656258,10.0706718 C2.7035619,10.1671475 2.50182067,10.2153846 2.25133283,10.2153846 C1.95751736,10.2153846 1.7314047,10.1397613 1.57298807,9.98851228 C1.41457143,9.8372633 1.33468732,9.61537255 1.33333333,9.32283337 L1.89997461,9.26308098 C1.90674455,9.41993178 1.93179296,9.53072155 1.97512059,9.59545362 C2.04011203,9.69379658 2.13895169,9.74296732 2.27164255,9.74296732 C2.40568739,9.74296732 2.50046515,9.70780091 2.55597867,9.63746702 C2.6114922,9.56713313 2.63924854,9.42117694 2.63924854,9.19959407 L2.63924854,7.43129694 Z M3.87814166,10.1687031 L3.87814166,7.43129694 L4.84285352,7.43129694 C5.20843036,7.43129694 5.44672873,7.44499005 5.55775578,7.4723767 C5.7283583,7.51345667 5.87120193,7.60277314 5.98629094,7.7403288 C6.10137994,7.87788446 6.15892358,8.05558378 6.15892358,8.27343211 C6.15892358,8.44148653 6.12575137,8.58277461 6.05940594,8.69730059 C5.99306051,8.81182657 5.908776,8.90176545 5.80654989,8.96711995 C5.70432377,9.03247445 5.60040672,9.07573225 5.49479563,9.09689466 C5.35127287,9.12303646 5.14343878,9.13610716 4.87128713,9.13610716 L4.47930947,9.13610716 L4.47930947,10.1687031 L3.87814166,10.1687031 Z M4.47930947,7.89437792 L4.47930947,8.67115892 L4.80832699,8.67115892 C5.04527494,8.67115892 5.2036892,8.65684339 5.28357451,8.62821189 C5.36345982,8.5995804 5.42608084,8.55476656 5.47143945,8.49376903 C5.51679806,8.4327715 5.53947702,8.36181625 5.53947702,8.28090116 C5.53947702,8.18131335 5.50765878,8.09915464 5.44402133,8.03442257 C5.38038387,7.9696905 5.29982278,7.92923356 5.20233562,7.91305054 C5.13057424,7.90060206 4.98637664,7.89437792 4.76973851,7.89437792 L4.47930947,7.89437792 Z M8.03757299,9.16224883 L8.03757299,8.70103511 L9.33333333,8.70103511 L9.33333333,9.79151614 C9.20741242,9.90355242 9.02496523,10.0022051 8.78598629,10.0874772 C8.54700735,10.1727492 8.30498557,10.2153846 8.05991368,10.2153846 C7.74849637,10.2153846 7.47702578,10.1553216 7.24549378,10.0351938 C7.01396178,9.91506604 6.83997689,9.74327965 6.72353389,9.51982951 C6.6070909,9.29637937 6.54887027,9.05332653 6.54887027,8.79066369 C6.54887027,8.5055936 6.61386074,8.25227091 6.74384362,8.03068805 C6.87382649,7.80910518 7.064059,7.63918603 7.31454684,7.52092551 C7.50545919,7.43005164 7.74308058,7.38461538 8.02741813,7.38461538 C8.39705694,7.38461538 8.68579062,7.45588184 8.89362782,7.59841689 C9.10146503,7.74095193 9.23516937,7.93794611 9.29474486,8.18940532 L8.69763899,8.29210473 C8.65566536,8.15766119 8.57679672,8.05153953 8.46103072,7.97373655 C8.34526472,7.89593358 8.20072863,7.85703268 8.02741813,7.85703268 C7.76474439,7.85703268 7.55589483,7.93358965 7.40086316,8.08670591 C7.2458315,8.23982216 7.16831683,8.46700343 7.16831683,8.76825655 C7.16831683,9.09316176 7.24684698,9.33683702 7.40390962,9.49928963 C7.56097227,9.66174224 7.7667754,9.74296732 8.02132521,9.74296732 C8.14724612,9.74296732 8.27350364,9.7202492 8.40010155,9.67481226 C8.52669946,9.62937532 8.63535539,9.57429164 8.72607261,9.50955957 L8.72607261,9.16224883 L8.03757299,9.16224883 Z" id="path-6"></path>
        <path d="M15.9087348,4.32990625 L11.5829558,0.0943125 C11.5213716,0.0340625 11.4364074,0 11.3476626,0 L4.90039837,0 C4.1788659,0 3.5918435,0.5529375 3.5918435,1.2325625 L3.5918435,5.53846875 L0.979011819,5.53846875 C0.439180702,5.53846875 0,5.9521875 0,6.46075 L0,11.07775 C0,11.5862813 0.439180702,12 0.979011819,12 L3.5918435,12 L3.5918435,14.7695938 C3.5918435,15.4480312 4.1788659,16 4.90039837,16 L14.6914451,16 C15.4129776,16 16,15.4483437 16,14.7702813 L16,4.54328125 C16,4.46371875 15.9672679,4.38725 15.9087348,4.32990625 Z M11.4285809,0.83065625 L14.9796668,4.3076875 L11.4285809,4.3076875 L11.4285809,0.83065625 Z M10.7754973,0.615375 L10.7754973,4.615375 C10.7754973,4.7853125 10.921714,4.9230625 11.1020225,4.9230625 L15.3469164,4.9230625 L15.3469164,14.7702813 C15.3469164,15.1090312 15.052858,15.384625 14.691412,15.384625 L4.90039837,15.384625 C4.53895229,15.384625 4.2448939,15.10875 4.2448939,14.769625 L4.2448939,12 L9.79651869,12 C10.3363498,12 10.7755305,11.5862813 10.7755305,11.07775 L10.7755305,6.46075 C10.7755305,5.9521875 10.3363498,5.53846875 9.79651869,5.53846875 L4.2448939,5.53846875 L4.2448939,1.2325625 C4.2448939,0.89221875 4.53895229,0.615375 4.90039837,0.615375 L10.7754973,0.615375 Z M5.3789183,7.6 C5.75946244,7.6 6.06261732,7.71261149 6.28839205,7.93783784 C6.51416677,8.16306419 6.62705244,8.46550647 6.62705244,8.84517375 C6.62705244,9.23342107 6.51416677,9.53961707 6.28839205,9.76377091 C6.06261732,9.98792476 5.75391523,10.1 5.36227652,10.1 C4.98838913,10.1 4.68939465,9.98631602 4.46528411,9.75894466 C4.24117357,9.53157329 4.12911998,9.22859477 4.12911998,8.85 C4.12911998,8.4671152 4.24172829,8.16306419 4.46694829,7.93783784 C4.69216829,7.71261149 4.99615525,7.6 5.3789183,7.6 Z M8.24629847,7.6 C8.51478733,7.6 8.78160801,7.63056597 9.0467685,7.69169884 L9.0467685,8.07940798 C8.74610535,7.97751987 8.49426213,7.92657658 8.2912313,7.92657658 C8.0316181,7.92657658 7.83136391,8.00620898 7.69046273,8.16547619 C7.54956155,8.3247434 7.47911202,8.55077074 7.47911202,8.84356499 C7.47911202,9.13099672 7.5548314,9.3551472 7.70627243,9.51602317 C7.85771347,9.67689913 8.06822999,9.75733591 8.33782831,9.75733591 C8.57969018,9.75733591 8.8237673,9.69834894 9.070067,9.58037323 L9.070067,9.94555985 C8.83153351,10.0485205 8.54696177,10.1 8.21634325,10.1 C7.8125005,10.1 7.49797384,9.99006974 7.27275384,9.77020592 C7.04753384,9.5503421 6.93492553,9.24360986 6.93492553,8.85 C6.93492553,8.44888259 7.04836592,8.1402735 7.27525011,7.92416345 C7.50213429,7.7080534 7.82581384,7.6 8.24629847,7.6 Z M2.63967991,7.65952381 C3.0213335,7.65952381 3.31367133,7.75738855 3.51670217,7.95312098 C3.719733,8.1488534 3.8212469,8.43118649 3.8212469,8.8001287 C3.8212469,9.19266606 3.71363107,9.49752144 3.4983962,9.71470399 C3.28316132,9.93188654 2.98194796,10.0404762 2.59474708,10.0404762 L1.57959798,10.0404762 L1.57959798,7.65952381 L2.63967991,7.65952381 Z M5.3789183,7.92657658 C5.16479289,7.92657658 4.99366154,8.01023082 4.86551913,8.17754183 C4.73737671,8.34485283 4.67330647,8.56846707 4.67330647,8.84839125 C4.67330647,9.12617042 4.73709935,9.34951653 4.86468704,9.51843629 C4.99227472,9.68735606 5.1603551,9.77181467 5.36893323,9.77181467 C5.58860594,9.77181467 5.76251089,9.68842855 5.8906533,9.5216538 C6.01879571,9.35487905 6.08286596,9.12885171 6.08286596,8.84356499 C6.08286596,8.56685833 6.01851835,8.34485283 5.88982121,8.17754183 C5.76112407,8.01023082 5.5908248,7.92657658 5.3789183,7.92657658 Z M2.40170233,7.98610039 L2.09216507,7.98610039 L2.09216507,9.70263835 L2.4749262,9.70263835 C2.74452452,9.70263835 2.94561079,9.63051338 3.07819104,9.48626126 C3.21077128,9.34200915 3.27706041,9.12295299 3.27706041,8.82908623 C3.27706041,8.60171486 3.22380722,8.41242032 3.11729924,8.26119691 C3.044075,8.15716379 2.95587441,8.08530693 2.8526948,8.0456242 C2.7495152,8.00594146 2.59918588,7.98610039 2.40170233,7.98610039 Z" id="path-8"></path>
        <path d="M11.3476626,0 C11.4364074,0 11.5213716,0.0340625 11.5829558,0.0943125 L11.5829558,0.0943125 L15.9087348,4.32990625 C15.9672679,4.38725 16,4.46371875 16,4.54328125 L16,4.54328125 L16,14.7702813 C16,15.4483437 15.4129776,16 14.6914451,16 L14.6914451,16 L4.90039837,16 C4.1788659,16 3.5918435,15.4480312 3.5918435,14.7695938 L3.5918435,14.7695938 L3.5918435,12 L0.979011819,12 C0.439180702,12 0,11.5862813 0,11.07775 L0,11.07775 L0,6.46075 C0,5.9521875 0.439180702,5.53846875 0.979011819,5.53846875 L0.979011819,5.53846875 L3.5918435,5.53846875 L3.5918435,1.2325625 C3.5918435,0.5529375 4.1788659,0 4.90039837,0 L4.90039837,0 Z M10.7754973,0.615375 L4.90039837,0.615375 C4.53895229,0.615375 4.2448939,0.89221875 4.2448939,1.2325625 L4.2448939,1.2325625 L4.2448939,5.53846875 L9.79651869,5.53846875 C10.3363498,5.53846875 10.7755305,5.9521875 10.7755305,6.46075 L10.7755305,6.46075 L10.7755305,11.07775 C10.7755305,11.5862813 10.3363498,12 9.79651869,12 L9.79651869,12 L4.2448939,12 L4.2448939,14.769625 C4.2448939,15.10875 4.53895229,15.384625 4.90039837,15.384625 L4.90039837,15.384625 L14.691412,15.384625 C15.052858,15.384625 15.3469164,15.1090313 15.3469164,14.7702813 L15.3469164,14.7702813 L15.3469164,4.9230625 L11.1020225,4.9230625 C10.921714,4.9230625 10.7754973,4.7853125 10.7754973,4.615375 L10.7754973,4.615375 L10.7754973,0.615375 Z M2.00007729,7.568 L1.088,7.568 L1.088,10.448 L1.69089855,10.448 L1.69089855,8.23918644 L1.69862802,8.23918644 L2.39041546,10.448 L2.85031884,10.448 L3.56915942,8.23918644 L3.57688889,8.23918644 L3.57688889,10.448 L4.17978744,10.448 L4.17978744,7.568 L3.27157488,7.568 L2.63775845,9.44732203 L2.63002899,9.44732203 L2.00007729,7.568 Z M5.7527343,7.568 L4.73630918,7.568 L4.73630918,10.448 L5.33920773,10.448 L5.33920773,9.32528814 L5.77978744,9.32528814 C5.92407157,9.32528814 6.05804769,9.31105099 6.18171981,9.28257627 C6.30539192,9.25410155 6.41231517,9.20596644 6.50249275,9.13816949 C6.59267034,9.07037254 6.66352309,8.97952599 6.71505314,8.86562712 C6.76658319,8.75172824 6.79234783,8.61071271 6.79234783,8.44257627 C6.79234783,8.27172796 6.76465084,8.13003446 6.70925604,8.01749153 C6.65386124,7.90494859 6.57914379,7.81545796 6.48510145,7.74901695 C6.39105911,7.68257594 6.28091529,7.63579675 6.15466667,7.60867797 C6.02841805,7.58155919 5.89444193,7.568 5.7527343,7.568 L5.7527343,7.568 Z M8.73630918,7.568 L8.10249275,7.568 L6.98558454,9.35783051 L6.98558454,9.87037288 L8.17978744,9.87037288 L8.17978744,10.448 L8.73630918,10.448 L8.73630918,9.87037288 L9.088,9.87037288 L9.088,9.35783051 L8.73630918,9.35783051 L8.73630918,7.568 Z M8.17978744,8.36528814 L8.17978744,9.35783051 L7.56529469,9.35783051 L8.17205797,8.36528814 L8.17978744,8.36528814 Z M5.64838647,8.10494915 C5.70506953,8.10494915 5.76432819,8.10833895 5.82616425,8.11511864 C5.88800031,8.12189834 5.9440384,8.1374914 5.99428019,8.16189831 C6.04452199,8.18630521 6.08574541,8.22088113 6.11795169,8.26562712 C6.15015797,8.31037311 6.16626087,8.36935557 6.16626087,8.44257627 C6.16626087,8.51037322 6.15402267,8.56664384 6.12954589,8.61138983 C6.10506912,8.65613582 6.07286332,8.6913897 6.03292754,8.71715254 C5.99299175,8.74291538 5.94790363,8.76122028 5.89766184,8.7720678 C5.84742004,8.78291531 5.79524665,8.78833898 5.7411401,8.78833898 L5.7411401,8.78833898 L5.33920773,8.78833898 L5.33920773,8.10494915 Z M11.4285809,0.83065625 L11.4285809,4.3076875 L14.9796668,4.3076875 L11.4285809,0.83065625 Z" id="path-10"></path>
        <path d="M15.9087348,4.32990625 L11.5829558,0.0943125 C11.5213716,0.0340625 11.4364074,0 11.3476626,0 L4.90039837,0 C4.1788659,0 3.5918435,0.5529375 3.5918435,1.2325625 L3.5918435,5.53846875 L0.979011819,5.53846875 C0.439180702,5.53846875 0,5.9521875 0,6.46075 L0,11.07775 C0,11.5862813 0.439180702,12 0.979011819,12 L3.5918435,12 L3.5918435,14.7695938 C3.5918435,15.4480312 4.1788659,16 4.90039837,16 L14.6914451,16 C15.4129776,16 16,15.4483437 16,14.7702813 L16,4.54328125 C16,4.46371875 15.9672679,4.38725 15.9087348,4.32990625 Z M11.4285809,0.83065625 L14.9796668,4.3076875 L11.4285809,4.3076875 L11.4285809,0.83065625 Z M10.7754973,0.615375 L10.7754973,4.615375 C10.7754973,4.7853125 10.921714,4.9230625 11.1020225,4.9230625 L15.3469164,4.9230625 L15.3469164,14.7702813 C15.3469164,15.1090313 15.052858,15.384625 14.691412,15.384625 L4.90039837,15.384625 C4.53895229,15.384625 4.2448939,15.10875 4.2448939,14.769625 L4.2448939,12 L9.79651869,12 C10.3363498,12 10.7755305,11.5862813 10.7755305,11.07775 L10.7755305,6.46075 C10.7755305,5.9521875 10.3363498,5.53846875 9.79651869,5.53846875 L4.2448939,5.53846875 L4.2448939,1.2325625 C4.2448939,0.89221875 4.53895229,0.615375 4.90039837,0.615375 L10.7754973,0.615375 Z M2.59378901,7.25 C2.94757835,7.25 3.20014084,7.31114804 3.35148405,7.43344595 C3.50282727,7.55574385 3.57849774,7.7601337 3.57849774,8.04662162 C3.57849774,8.37094757 3.4772762,8.62330991 3.27483008,8.80371622 C3.07238396,8.98412252 2.78902916,9.07432432 2.42475717,9.07432432 L2.1731749,9.07432432 L2.1731749,10.25 L1.57959798,10.25 L1.57959798,7.25 L2.59378901,7.25 Z M5.30026391,7.25 C5.75101773,7.25 6.09628474,7.37330958 6.33607529,7.61993243 C6.57586584,7.86655529 6.69575932,8.22229497 6.69575932,8.68716216 C6.69575932,9.18175923 6.56865913,9.56587701 6.31445494,9.83952703 C6.06025075,10.113177 5.70450125,10.25 5.24719577,10.25 L4.04824901,10.25 L4.04824901,7.25 L5.30026391,7.25 Z M9.070067,7.25 L9.070067,7.66148649 L7.84556892,7.66148649 L7.84556892,8.57364865 L8.851898,8.57364865 L8.851898,8.98716216 L7.84556892,8.98716216 L7.84556892,10.25 L7.24019908,10.25 L7.24019908,7.25 L9.070067,7.25 Z M5.01919934,7.66148649 L4.65361885,7.66148649 L4.65361885,9.82432432 L5.10568075,9.82432432 C5.42409115,9.82432432 5.66158506,9.73344685 5.8181696,9.55168919 C5.97475414,9.36993152 6.05304524,9.09392077 6.05304524,8.72364865 C6.05304524,8.43716073 5.9901503,8.1986496 5.86435853,8.00810811 C5.7778767,7.87702637 5.67370695,7.78648674 5.55184618,7.73648649 C5.42998541,7.68648624 5.25243824,7.66148649 5.01919934,7.66148649 Z M2.40903328,7.66148649 L2.1731749,7.66148649 L2.1731749,8.66283784 L2.29110409,8.66283784 C2.49813637,8.66283784 2.66159769,8.61317617 2.78149297,8.51385135 C2.90138824,8.41452653 2.96133498,8.27973058 2.96133498,8.10945946 C2.96133498,7.81080932 2.77723626,7.66148649 2.40903328,7.66148649 Z" id="path-12"></path>
    </defs>
    <g id="Style" stroke="none" stroke-width="1" fill="none" fill-rule="evenodd">
        <g id="Artboard" transform="translate(-763.000000, -282.000000)">
            <g id="Group-3" transform="translate(761.000000, 282.000000)">
                <g id="Icons-/-Action-/-Load-/-Cloud-/-Up-/-Outline" transform="translate(46.000000, 35.000000)">
                    <mask id="mask-3" fill="white">
                        <use xlink:href="#path-2"></use>
                    </mask>
                    <use id="ic_load_cloud_up_outline" fill="url(#linearGradient-1)" fill-rule="nonzero" xlink:href="#path-2"></use>
                    <g id="Color" mask="url(#mask-3)" fill="#CECECE">
                        <g transform="translate(0.000000, -1.000000)" id="■-Color">
                            <rect x="0" y="0" width="24" height="24"></rect>
                        </g>
                    </g>
                </g>
                <g id="Icons-/-File-/-Doc" transform="translate(49.000000, 0.000000)">
                    <mask id="mask-5" fill="white">
                        <use xlink:href="#path-4"></use>
                    </mask>
                    <g id="ic_file_xls"></g>
                    <g id="Color" mask="url(#mask-5)" fill="#E9E9E9">
                        <rect id="■-Color" x="0" y="0" width="16" height="16"></rect>
                    </g>
                </g>
                <g id="Icons-/-File-/-Doc-Copy" transform="translate(29.000000, 18.000000) rotate(-30.000000) translate(-29.000000, -18.000000) translate(21.000000, 10.000000)">
                    <mask id="mask-7" fill="white">
                        <use xlink:href="#path-6"></use>
                    </mask>
                    <g id="ic_file_jpg"></g>
                    <g id="Color" mask="url(#mask-7)" fill="#E9E9E9">
                        <rect id="■-Color" x="0" y="0" width="16" height="16"></rect>
                    </g>
                </g>
                <g id="Icons-/-File-/-Doc-Copy-3" transform="translate(11.000000, 38.000000) rotate(-60.000000) translate(-11.000000, -38.000000) translate(3.000000, 30.000000)">
                    <mask id="mask-9" fill="white">
                        <use xlink:href="#path-8"></use>
                    </mask>
                    <g id="ic_file_doc"></g>
                    <g id="Color" mask="url(#mask-9)" fill="#E9E9E9">
                        <rect id="■-Color" x="0" y="0" width="16" height="16"></rect>
                    </g>
                </g>
                <g id="Icons-/-File-/-Doc-Copy-2" transform="translate(85.000000, 18.000000) rotate(30.000000) translate(-85.000000, -18.000000) translate(77.000000, 10.000000)">
                    <mask id="mask-11" fill="white">
                        <use xlink:href="#path-10"></use>
                    </mask>
                    <g id="ic_file_mp4"></g>
                    <g id="Color" mask="url(#mask-11)" fill="#E9E9E9">
                        <rect id="■-Color" x="0" y="0" width="16" height="16"></rect>
                    </g>
                </g>
                <g id="Icons-/-File-/-Doc-Copy-4" transform="translate(103.000000, 38.000000) rotate(60.000000) translate(-103.000000, -38.000000) translate(95.000000, 30.000000)">
                    <mask id="mask-13" fill="white">
                        <use xlink:href="#path-12"></use>
                    </mask>
                    <g id="ic_file_pdf"></g>
                    <g id="Color" mask="url(#mask-13)" fill="#E9E9E9">
                        <rect id="■-Color" x="0" y="0" width="16" height="16"></rect>
                    </g>
                </g>
            </g>
        </g>
    </g>
</svg>