<?xml version="1.0" encoding="UTF-8"?>
<svg width="20px" height="14px" viewBox="0 0 20 14" version="1.1" xmlns="http://www.w3.org/2000/svg" xmlns:xlink="http://www.w3.org/1999/xlink">
    <!-- Generator: sketchtool 61.2 (101010) - https://sketch.com -->
    <title>F25A42C6-42C3-4CDA-9143-CF74D90676B3@1.5x</title>
    <desc>Created with sketchtool.</desc>
    <defs>
        <path d="M19,12 L2.99508929,12 C2.4481604,12 2,11.5484013 2,10.9914698 L2,1 C2,0.44771525 1.55228475,0 1,0 C0.44771525,0 0,0.44771525 0,1 L0,10.9914698 C0,12.6495635 1.34015473,14 2.99508929,14 L19,14 C19.5522847,14 20,13.5522847 20,13 C20,12.4477153 19.5522847,12 19,12 Z M15,1.99201702 C15,0.891856397 15.8877296,8.8817842e-16 17,8.8817842e-16 L17,8.8817842e-16 C18.1045695,8.8817842e-16 19,0.900176167 19,1.99201702 L19,9.00798298 C19,10.1081436 18.1122704,11 17,11 L17,11 C15.8954305,11 15,10.0998238 15,9.00798298 L15,1.99201702 Z M11,3 C12.1045695,3 13,3.88670635 13,4.99810135 L13,9.00189865 C13,10.0552595 12.1911389,10.9182428 11.1502192,10.9945195 L11,11 C9.8954305,11 9,10.1132936 9,9.00189865 L9,4.99810135 C9,3.94474049 9.8088611,3.08175719 10.8497808,3.00548053 L11,3 Z M5,6 C6.1045695,6 7,6.8938998 7,8.0048815 L7,8.9951185 C7,10.0520537 6.1911389,10.9179654 5.15021917,10.9945009 L5,11 C3.8954305,11 3,10.1061002 3,8.9951185 L3,8.0048815 C3,6.94794627 3.8088611,6.08203462 4.84978083,6.00549913 L5,6 Z" id="path-1"></path>
    </defs>
    <g id="Style" stroke="none" stroke-width="1" fill="none" fill-rule="evenodd">
        <g id="Artboard" transform="translate(-440.000000, -667.000000)">
            <g id="Icons-/-Action-/-Load-/-Cloud-/-Down-/-Outline-Copy-92" transform="translate(440.000000, 667.000000)">
                <mask id="mask-2" fill="white">
                    <use xlink:href="#path-1"></use>
                </mask>
                <g id="ic_menu_report" fill-rule="nonzero"></g>
                <g id="Color" mask="url(#mask-2)" fill="#858688">
                    <g transform="translate(0.000000, -3.000000)" id="■-Color">
                        <rect x="0" y="0" width="20" height="20"></rect>
                    </g>
                </g>
            </g>
        </g>
    </g>
</svg>